<svg fill="#FFA500" xmlns="http://www.w3.org/2000/svg"  viewBox="0 0 50 50" width="50px" height="50px"><path d="M 28.058594 0.005859375 C 27.918719 -0.009640625 27.774219 0.004328125 27.636719 0.048828125 C 27.363719 0.13782813 27.142297 0.34046875 27.029297 0.60546875 L 25.449219 4.2929688 C 24.894873 5.5869346 24.887255 7.032521 25.380859 8.3144531 C 22.846658 8.7508407 20.468769 9.6420115 18.330078 10.902344 L 3.5097656 2.1386719 A 1.0001 1.0001 0 0 0 3.0332031 2 A 1.0001 1.0001 0 0 0 2.0800781 2.6054688 L 0.5 6.2929688 C -0.40131513 8.3967674 0.21877316 10.766962 1.8652344 12.275391 C 0.84891622 15.143886 1.6942912 18.285921 3.9335938 20.310547 C 3.0131473 23.470242 4.2319692 26.90532 7.1035156 28.626953 A 1.0001 1.0001 0 0 0 7.1503906 28.654297 L 7.9589844 29.083984 C 7.9832017 33.885738 9.6400155 38.299202 12.386719 41.828125 C 12.879719 41.934125 13.414 42 14 42 C 17.15 42 19.923766 38.922422 23.134766 35.357422 C 27.035766 31.027422 31.431703 26.156953 37.845703 25.626953 C 37.718703 24.414953 37.515422 23.216016 37.232422 22.041016 C 32.210883 22.039098 27.460798 23.394885 24.255859 24.589844 C 24.552878 23.832497 24.757645 23.054139 24.869141 22.269531 C 28.026983 21.193119 32.17953 20.132759 36.669922 20.052734 C 36.444922 19.355734 36.190156 18.666234 35.910156 17.990234 C 31.435156 17.897234 28.422625 16.607125 25.765625 15.453125 C 24.689707 14.985529 23.683578 14.565415 22.662109 14.246094 C 21.912952 13.31368 21.000641 12.488666 19.916016 11.837891 A 1.0001 1.0001 0 0 0 19.910156 11.835938 L 19.693359 11.707031 C 22.28614 11.771791 24.368876 12.666354 26.5625 13.619141 C 28.9565 14.658141 31.427609 15.724031 34.974609 15.957031 C 33.845609 13.756031 32.417078 11.698703 30.705078 9.8457031 C 30.677078 9.8127031 29.959641 8.979 28.931641 8 C 28.437583 8 27.948402 8.02271 27.462891 8.0566406 C 26.944983 7.1552504 26.87155 6.0491277 27.287109 5.0800781 L 28.417969 2.4414062 L 43.921875 11.640625 C 46.918479 13.438587 48.425951 16.794518 47.921875 20.109375 C 46.531061 17.143335 44.47084 14.554311 41.927734 12.539062 C 41.966734 12.709062 41.983281 12.814656 41.988281 12.847656 C 41.999281 12.907656 42.306875 14.776391 41.046875 16.275391 C 40.347875 17.107391 39.327438 17.632234 38.023438 17.865234 C 38.306438 18.597234 38.556297 19.341703 38.779297 20.095703 C 41.64537 20.253218 44.568275 20.850463 47.349609 22.148438 C 47.728609 22.325437 48.105516 22.51475 48.478516 22.71875 C 48.517516 22.74275 48.728828 22.870312 49.048828 23.070312 C 49.0816 23.090742 49.076145 23.087373 49.111328 23.109375 C 49.167328 22.985375 49.224438 22.859328 49.273438 22.736328 C 51.184438 17.963328 49.366312 12.575828 44.945312 9.9238281 L 28.457031 0.140625 C 28.333031 0.067125 28.198469 0.021359375 28.058594 0.005859375 z M 3.4707031 4.4414062 L 18.892578 13.556641 C 22.943732 15.991941 24.204139 21.245675 21.699219 25.253906 C 19.256213 29.162178 14.163081 30.384958 10.210938 28.013672 A 1.0001 1.0001 0 0 0 10.164062 27.988281 L 8.1328125 26.912109 L 8.1308594 26.910156 C 5.8857081 25.562524 4.9547793 22.803059 5.9277344 20.371094 A 1.0001 1.0001 0 0 0 5.5996094 19.199219 C 3.5973947 17.697558 2.8553842 15.054051 3.7851562 12.730469 A 1.0001 1.0001 0 0 0 3.7851562 12.728516 L 3.9277344 12.371094 A 1.0001 1.0001 0 0 0 3.5546875 11.167969 C 2.2114006 10.272702 1.7040347 8.5641475 2.3398438 7.0800781 L 3.4707031 4.4414062 z M 31.960938 8.2441406 C 32.096937 8.3971406 32.189125 8.5054844 32.203125 8.5214844 C 34.261125 10.748484 35.935125 13.260984 37.203125 15.958984 C 38.271125 15.852984 39.057578 15.535281 39.517578 14.988281 C 40.163578 14.219281 40.017625 13.181875 40.015625 13.171875 C 40.011625 13.149875 39.850437 12.246875 39.148438 10.671875 C 36.963437 9.447875 34.535938 8.6191406 31.960938 8.2441406 z M 39.298828 22.115234 C 39.552828 23.267234 39.741422 24.435141 39.857422 25.619141 C 41.605422 25.802141 43.006391 26.558 44.025391 27.875 C 47.482391 32.343 45.071797 41.848 44.966797 42.25 C 44.962797 42.269 44.939391 42.377875 44.900391 42.546875 C 48.017391 38.884875 49.908203 34.150563 49.908203 28.976562 C 49.908203 27.908562 49.803438 26.867797 49.648438 25.841797 C 48.472438 25.054797 47.497469 24.459219 47.480469 24.449219 C 44.872469 23.027219 42.074828 22.337234 39.298828 22.115234 z M 37.978516 27.621094 C 32.369516 28.100094 28.432141 32.462313 24.619141 36.695312 C 21.322141 40.356313 18.200734 43.809422 14.302734 43.982422 C 17.849734 47.441422 22.614766 49.639344 27.884766 49.902344 C 28.447766 49.395344 29.096703 48.791969 29.720703 48.167969 C 35.059703 42.826969 38 35.841 38 28.5 C 38 28.206 37.988516 27.914094 37.978516 27.621094 z M 39.980469 27.658203 C 39.987469 27.939203 40 28.219 40 28.5 C 40 36.375 36.852719 43.861078 31.136719 49.580078 C 31.042719 49.673078 30.947516 49.764422 30.853516 49.857422 C 35.128516 49.467422 39.036547 47.794703 42.185547 45.220703 C 42.669547 43.374703 43.018437 41.807203 43.023438 41.783203 C 43.672438 39.269203 44.816359 32.161656 42.443359 29.097656 C 41.831359 28.306656 41.016469 27.836203 39.980469 27.658203 z"/></svg>