<?xml version="1.0" encoding="iso-8859-1"?>
<!-- Generator: Adobe Illustrator 19.0.0, SVG Export Plug-In . SVG Version: 6.00 Build 0)  -->
<svg version="1.1" id="Layer_1" xmlns="http://www.w3.org/2000/svg" xmlns:xlink="http://www.w3.org/1999/xlink" x="0px" y="0px"
	 viewBox="0 0 512 512" style="enable-background:new 0 0 512 512;" xml:space="preserve">
<path style="fill:#FF3F62;" d="M418.909,0H256.143H93.091c-7.23,0-13.689,3.297-17.959,8.47c-1.897,2.299-3.362,4.968-4.268,7.883
	c-0.68,2.185-1.046,4.51-1.046,6.92v465.455c0,12.853,10.42,23.273,23.273,23.273h163.052h162.766
	c12.853,0,23.273-10.42,23.273-23.273V23.273C442.182,10.42,431.762,0,418.909,0z"/>
<g>
	<path style="fill:#FFA733;" d="M325.818,372.364h-69.675h-69.961c-12.853,0-23.273,10.42-23.273,23.273s10.42,23.273,23.273,23.273
		h69.961h69.675c12.853,0,23.273-10.42,23.273-23.273S338.671,372.364,325.818,372.364z"/>
	<path style="fill:#FFA733;" d="M256.143,216.18c-56.267,0-101.879,45.608-101.879,101.88h101.879h101.879
		C358.021,261.789,312.408,216.18,256.143,216.18z"/>
	<circle style="fill:#FFA733;" cx="256.14" cy="150.683" r="65.505"/>
</g>
<path style="fill:#D8143A;" d="M69.818,23.273v465.455c0,12.853,10.42,23.273,23.273,23.273h163.052v-93.091h-69.961
	c-12.853,0-23.273-10.42-23.273-23.273s10.42-23.273,23.273-23.273h69.961v-54.303H154.264c0-56.272,45.613-101.88,101.879-101.88
	c-36.17,0-65.497-29.324-65.497-65.496s29.327-65.494,65.497-65.494V0H93.091C80.238,0,69.818,10.42,69.818,23.273z"/>
<g>
</g>
<g>
</g>
<g>
</g>
<g>
</g>
<g>
</g>
<g>
</g>
<g>
</g>
<g>
</g>
<g>
</g>
<g>
</g>
<g>
</g>
<g>
</g>
<g>
</g>
<g>
</g>
<g>
</g>
</svg>
