<?xml version="1.0" encoding="iso-8859-1"?>
<!-- Generator: Adobe Illustrator 19.0.0, SVG Export Plug-In . SVG Version: 6.00 Build 0)  -->
<svg version="1.1" id="Layer_1" xmlns="http://www.w3.org/2000/svg" xmlns:xlink="http://www.w3.org/1999/xlink" x="0px" y="0px"
	 viewBox="0 0 503.996 503.996" style="enable-background:new 0 0 503.996 503.996;" xml:space="preserve">
<g transform="translate(1 1)">
	<path style="fill:#AAB1BA;" d="M490.742,447.154l8.533,51.2h-68.267V394.247C460.875,405.341,485.622,424.114,490.742,447.154z
		 M277.408,442.887v55.467h-51.2v-50.347l25.6-17.92L277.408,442.887z M175.862,405.341L175.862,405.341l-0.853,93.013h-51.2
		V381.447v-0.853c9.387-1.707,17.92-2.56,25.6-2.56L175.862,405.341z M72.608,396.807v101.547H4.342l8.533-51.2
		c4.267-22.187,29.867-40.107,58.88-52.053L72.608,396.807z M379.808,381.447v65.707h-51.2v-42.667l25.6-25.6l0,0
		C361.888,378.887,370.422,379.741,379.808,381.447z"/>
	<g>
		<polygon style="fill:#ECF4F7;" points="277.408,442.887 251.808,430.087 320.075,361.821 354.208,378.887 354.208,378.887 
			328.608,404.487 285.942,447.154 		"/>
		<polygon style="fill:#ECF4F7;" points="328.608,498.354 379.808,498.354 379.808,447.154 328.608,447.154 		"/>
		<polygon style="fill:#ECF4F7;" points="226.208,448.007 221.942,451.421 175.862,405.341 149.408,378.887 183.542,361.821 
			251.808,430.087 		"/>
		<path style="fill:#ECF4F7;" d="M226.208,448.007v50.347h-51.2v-93.013l0.853-0.853l46.08,46.08L226.208,448.007z M431.008,394.247
			v104.107h-51.2v-51.2v-65.707C396.875,383.154,414.795,387.421,431.008,394.247z M123.808,381.447v116.907h-51.2V396.807
			l-0.853-0.853C88.822,388.274,107.595,384.007,123.808,381.447L123.808,381.447z M328.608,447.154v51.2h-51.2v-55.467l8.533,4.267
			l42.667-42.667V447.154z"/>
	</g>
	<path style="fill:#FFD0A1;" d="M396.875,157.021v34.133c0,9.387-7.68,17.067-17.067,17.067c0,0-25.6,68.267-42.667,93.867
		c-10.24,16.213-25.6,42.667-85.333,42.667s-75.093-26.453-85.333-42.667c-17.067-25.6-42.667-93.867-42.667-93.867
		c-9.387,0-17.067-7.68-17.067-17.067v-34.133c0-9.387,8.533-17.067,17.067-17.067v-25.6c0-59.733,34.133-110.933,128-110.933
		s128,51.2,128,110.933v25.6C389.195,139.954,396.875,147.634,396.875,157.021"/>
</g>
<path style="fill:#51565F;" d="M500.275,503.621c-1.707,0-4.267-1.707-4.267-3.413l-8.533-51.2c-7.68-39.253-81.067-64-130.56-64
	l-40.96,40.96c-1.707,1.707-4.267,1.707-5.973,0c-1.707-1.707-1.707-4.267,0-5.973l38.4-38.4l-26.453-12.8L256.222,434.5
	c-0.853,0.853-1.707,0.853-3.413,0.853l0,0c-0.853,0-2.56-0.853-3.413-0.853l-65.707-65.707l-26.453,12.8l38.4,38.4
	c1.707,1.707,1.707,4.267,0,5.973c-1.707,1.707-4.267,1.707-5.973,0l-41.813-41.813c-41.813,0.853-122.88,25.6-130.56,64.853
	l-8.533,51.2c0,2.56-2.56,4.267-5.12,3.413c-2.56,0-4.267-2.56-3.413-5.12l8.533-51.2c9.387-46.08,96.427-71.68,139.947-71.68
	l33.28-16.213c1.707-0.853,3.413-0.853,5.12,0.853l64.853,64.853l64.853-64.853c1.707-1.707,3.413-1.707,5.12-0.853l34.133,17.067
	c52.053,0.853,129.707,25.6,139.093,71.68l8.533,51.2C504.542,501.061,503.688,502.767,500.275,503.621
	C501.129,503.621,500.275,503.621,500.275,503.621z M432.008,503.621c-2.56,0-4.267-1.707-4.267-4.267v-72.533
	c0-2.56,1.707-4.267,4.267-4.267s4.267,1.707,4.267,4.267v72.533C436.275,501.914,434.569,503.621,432.008,503.621z
	 M380.808,503.621c-2.56,0-4.267-1.707-4.267-4.267v-46.933h-42.667v46.933c0,2.56-1.707,4.267-4.267,4.267
	s-4.267-1.707-4.267-4.267v-51.2c0-2.56,1.707-4.267,4.267-4.267h51.2c2.56,0,4.267,1.707,4.267,4.267v51.2
	C385.075,501.914,383.368,503.621,380.808,503.621z M278.408,503.621c-2.56,0-4.267-1.707-4.267-4.267v-42.667
	c0-2.56,1.707-4.267,4.267-4.267s4.267,1.707,4.267,4.267v42.667C282.675,501.914,280.969,503.621,278.408,503.621z
	 M227.208,503.621c-2.56,0-4.267-1.707-4.267-4.267v-42.667c0-2.56,1.707-4.267,4.267-4.267s4.267,1.707,4.267,4.267v42.667
	C231.475,501.914,229.768,503.621,227.208,503.621z M176.008,503.621c-2.56,0-4.267-1.707-4.267-4.267v-51.2
	c0-2.56,1.707-4.267,4.267-4.267c2.56,0,4.267,1.707,4.267,4.267v51.2C180.275,501.914,178.568,503.621,176.008,503.621z
	 M124.808,503.621c-2.56,0-4.267-1.707-4.267-4.267V416.58c0-2.56,1.707-4.267,4.267-4.267s4.267,1.707,4.267,4.267v82.773
	C129.075,501.914,127.368,503.621,124.808,503.621z M73.608,503.621c-2.56,0-4.267-1.707-4.267-4.267v-72.533
	c0-2.56,1.707-4.267,4.267-4.267c2.56,0,4.267,1.707,4.267,4.267v72.533C77.875,501.914,76.168,503.621,73.608,503.621z
	 M252.808,350.021c-59.733,0-76.8-26.453-87.893-42.667l-1.707-1.707c-15.36-23.04-37.547-79.36-41.813-92.16
	c-10.24-1.707-17.92-10.24-17.92-21.333v-34.133c0-10.24,7.68-18.773,17.067-20.48v-22.187c0-73.387,47.787-115.2,132.267-115.2
	s132.267,41.813,132.267,115.2v22.187c9.387,1.707,17.067,10.24,17.067,20.48v34.133c0,11.093-7.68,19.627-17.92,21.333
	c-5.12,12.8-26.453,69.12-41.813,92.16l-1.707,1.707C329.608,323.567,312.542,350.021,252.808,350.021z M252.808,8.687
	c-107.52,0-123.733,66.56-123.733,106.667v25.6c0,2.56-1.707,4.267-4.267,4.267c-5.973,0-12.8,5.973-12.8,12.8v34.133
	c0,6.827,5.973,12.8,12.8,12.8c1.707,0,3.413,0.853,4.267,2.56c0,0.853,25.6,68.267,41.813,93.013l1.707,1.707
	c10.24,15.36,25.6,38.4,80.213,38.4s69.973-23.04,80.213-38.4l1.707-1.707c16.213-24.747,41.813-92.16,41.813-93.013
	c0.853-1.707,2.56-2.56,4.267-2.56c6.827,0,12.8-5.973,12.8-12.8v-34.133c0-6.827-5.973-12.8-12.8-12.8
	c-2.56,0-4.267-1.707-4.267-4.267v-25.6C376.542,75.247,360.329,8.687,252.808,8.687z M278.408,281.754h-51.2
	c-2.56,0-4.267-1.707-4.267-4.267c0-2.56,1.707-4.267,4.267-4.267h51.2c2.56,0,4.267,1.707,4.267,4.267
	C282.675,280.047,280.969,281.754,278.408,281.754z M295.475,170.821c-2.56,0-4.267-1.707-4.267-4.267v-4.267h-12.8
	c-2.56,0-4.267-1.707-4.267-4.267c0-2.56,1.707-4.267,4.267-4.267h34.133c2.56,0,4.267,1.707,4.267,4.267
	c0,2.56-1.707,4.267-4.267,4.267h-12.8v4.267C299.742,169.114,298.035,170.821,295.475,170.821z M210.142,170.821
	c-2.56,0-4.267-1.707-4.267-4.267v-4.267h-12.8c-2.56,0-4.267-1.707-4.267-4.267c0-2.56,1.707-4.267,4.267-4.267h34.133
	c2.56,0,4.267,1.707,4.267,4.267c0,2.56-1.707,4.267-4.267,4.267h-12.8v4.267C214.408,169.114,212.702,170.821,210.142,170.821z"/>
<g>
</g>
<g>
</g>
<g>
</g>
<g>
</g>
<g>
</g>
<g>
</g>
<g>
</g>
<g>
</g>
<g>
</g>
<g>
</g>
<g>
</g>
<g>
</g>
<g>
</g>
<g>
</g>
<g>
</g>
</svg>
