<?xml version="1.0" encoding="iso-8859-1"?>
<!-- Generator: Adobe Illustrator 19.0.0, SVG Export Plug-In . SVG Version: 6.00 Build 0)  -->
<svg version="1.1" id="Layer_1" xmlns="http://www.w3.org/2000/svg" xmlns:xlink="http://www.w3.org/1999/xlink" x="0px" y="0px"
	 viewBox="0 0 512 512" style="enable-background:new 0 0 512 512;" xml:space="preserve">
<path style="fill:#FFE97C;" d="M489.726,179.741c-10.589-32.479-27.755-61.982-49.931-86.94h-89.437l-44.813-77.618
	c-16.003-3.275-32.573-4.996-49.545-4.996s-33.542,1.721-49.546,4.996l-44.813,77.618H72.204
	c-22.176,24.958-39.342,54.461-49.931,86.94l44.022,76.247l-44.021,76.247c10.592,32.489,27.764,61.998,49.949,86.96h89.419
	l44.8,77.596c16.008,3.277,32.582,4.999,49.559,4.999c16.977,0,33.551-1.722,49.559-4.999l44.8-77.596h89.419
	c22.185-24.963,39.358-54.472,49.949-86.96l-44.023-76.247L489.726,179.741z"/>
<g>
	<polygon style="fill:#FF9ECA;" points="210.958,334.002 165.918,255.989 210.958,177.975 301.042,177.975 346.082,255.989 
		301.042,334.002 	"/>
	<path style="fill:#FF9ECA;" d="M439.795,92.801c-34.574-38.912-81.305-66.782-134.25-77.618l44.813,77.618H439.795z"/>
	<path style="fill:#FF9ECA;" d="M489.726,179.741l-44.021,76.247l44.021,76.247c7.827-24.006,12.075-49.628,12.075-76.247
		S497.553,203.748,489.726,179.741z"/>
	<path style="fill:#FF9ECA;" d="M305.559,496.791c52.93-10.836,99.649-38.697,134.218-77.596h-89.419L305.559,496.791z"/>
	<path style="fill:#FF9ECA;" d="M206.454,15.183c-52.945,10.836-99.676,38.706-134.25,77.618h89.437L206.454,15.183z"/>
	<path style="fill:#FF9ECA;" d="M22.274,179.741c-7.827,24.007-12.075,49.629-12.075,76.247s4.248,52.241,12.075,76.247
		l44.021-76.247L22.274,179.741z"/>
	<path style="fill:#FF9ECA;" d="M72.223,419.196c34.57,38.899,81.289,66.759,134.218,77.596l-44.8-77.596H72.223z"/>
</g>
<g>
	<path style="fill:#4D1E1E;" d="M499.423,176.581c-10.943-33.567-28.44-64.033-52.004-90.554
		c-36.568-41.158-86.227-69.866-139.829-80.836c-33.735-6.905-69.447-6.905-103.18,0C150.809,16.16,101.151,44.869,64.58,86.027
		c-23.564,26.52-41.061,56.987-52.004,90.554C4.231,202.178,0,228.894,0,255.989s4.231,53.811,12.577,79.408
		c10.947,33.576,28.45,64.05,52.023,90.574c36.564,41.142,86.21,69.842,139.795,80.811c16.873,3.454,34.234,5.206,51.605,5.206
		s34.732-1.751,51.605-5.206c53.586-10.97,103.232-39.67,139.795-80.811c23.573-26.524,41.075-56.998,52.023-90.574
		C507.769,309.8,512,283.083,512,255.989S507.769,202.178,499.423,176.581z M435.14,408.997h-78.9l-43.417-75.001l39.149-67.808
		h23.359c5.632,0,10.199-4.566,10.199-10.199c0-5.633-4.567-10.199-10.199-10.199h-23.359l-39.148-67.807L356.24,103h78.917
		c19.205,22.449,33.795,47.853,43.435,75.628l-41.719,72.26c-1.822,3.156-1.822,7.044,0,10.199l41.719,72.26
		C468.948,361.132,454.352,386.544,435.14,408.997z M155.761,408.997H76.86c-19.212-22.453-33.808-47.864-43.452-75.648
		l38.774-67.161h87.846l39.149,67.808L155.761,408.997z M25.706,305.892c-3.528-16.332-5.308-33.036-5.308-49.904
		s1.78-33.572,5.308-49.904l28.812,49.904L25.706,305.892z M76.844,103h78.917l43.416,74.981l-39.148,67.807H72.184L33.41,178.629
		C43.049,150.853,57.639,125.45,76.844,103z M216.846,323.803l-39.153-67.814l39.153-67.814h78.306l39.153,67.814l-39.153,67.814
		H216.846z M457.482,255.989l28.812-49.904c3.528,16.332,5.308,33.037,5.308,49.904s-1.78,33.572-5.308,49.904L457.482,255.989z
		 M415.464,82.602h-59.217l-29.703-51.448C359.406,41.519,389.952,59.192,415.464,82.602z M299.037,24.308l39.54,68.487
		l-43.416,74.981h-78.323l-43.416-74.981l39.541-68.487C241.193,19.102,270.802,19.102,299.037,24.308z M185.457,31.154
		l-29.704,51.448H96.537C122.049,59.192,152.594,41.519,185.457,31.154z M155.753,429.395l29.689,51.422
		c-32.847-10.361-63.38-28.025-88.883-51.422H155.753z M212.951,487.668l-39.529-68.465l43.416-75.001h78.323l43.416,75.001
		l-39.529,68.465C270.81,492.875,241.19,492.875,212.951,487.668z M326.558,480.818l29.689-51.422h59.194
		C389.938,452.792,359.405,470.456,326.558,480.818z"/>
	<path style="fill:#4D1E1E;" d="M411.718,245.789h-2.73c-5.632,0-10.199,4.566-10.199,10.199s4.567,10.199,10.199,10.199h2.73
		c5.632,0,10.199-4.566,10.199-10.199C421.918,250.356,417.35,245.789,411.718,245.789z"/>
</g>
<g>
</g>
<g>
</g>
<g>
</g>
<g>
</g>
<g>
</g>
<g>
</g>
<g>
</g>
<g>
</g>
<g>
</g>
<g>
</g>
<g>
</g>
<g>
</g>
<g>
</g>
<g>
</g>
<g>
</g>
</svg>
