<?xml version="1.0" encoding="iso-8859-1"?>
<!-- Generator: Adobe Illustrator 19.0.0, SVG Export Plug-In . SVG Version: 6.00 Build 0)  -->
<svg version="1.1" id="Layer_1" xmlns="http://www.w3.org/2000/svg" xmlns:xlink="http://www.w3.org/1999/xlink" x="0px" y="0px"
	 viewBox="0 0 512 512" style="enable-background:new 0 0 512 512;" xml:space="preserve">
<g>
	<g>
		<path d="M507.733,108.793l-42.667-32c-3.2-2.411-7.531-2.795-11.157-1.003c-3.627,1.813-5.909,5.504-5.909,9.536v95.637
			c-36.373-10.987-89.323-16.235-132.075-18.709c-1.088-0.853-2.347-1.515-3.776-1.899c-2.923-0.789-5.888-0.235-8.32,1.259
			c-20.373-1.024-37.44-1.387-47.829-1.536v-26.752l38.4-28.8c2.688-2.005,4.267-5.184,4.267-8.533c0-3.349-1.579-6.528-4.267-8.533
			l-42.667-32c-3.2-2.411-7.552-2.795-11.157-1.003c-3.627,1.813-5.909,5.504-5.909,9.536v96.085
			c-10.389,0.149-27.435,0.533-47.787,1.515c-2.432-1.472-5.397-2.027-8.32-1.237c-1.429,0.384-2.688,1.045-3.776,1.877
			c-52.181,3.029-119.637,10.155-153.451,26.837V154.66l38.4-28.8c2.688-2.005,4.267-5.184,4.267-8.533
			c0-3.349-1.579-6.528-4.267-8.533l-42.667-32c-3.2-2.411-7.531-2.795-11.157-1.003C2.283,77.604,0,81.295,0,85.327v128
			c0,1.067,0.085,2.091,0.277,3.115l21.056,188.885c0,52.736,214.848,53.333,224,53.333c9.152,0,224-0.597,223.936-52.139
			l21.12-190.08c0.192-1.024,0.277-2.069,0.277-3.093c0-0.021,0-0.021,0-0.021c0-9.792-8.107-17.771-21.333-24.277V154.66
			l38.379-28.8c2.709-2.005,4.288-5.184,4.288-8.533C512,113.977,510.421,110.799,507.733,108.793z M256,85.327l14.229,10.667
			L256,106.66V85.327z M21.333,106.66l14.229,10.667l-14.229,10.667V106.66z M316.949,183.353
			c33.664,1.984,62.101,5.269,85.013,9.109l-36.267,45.333c-0.341,0.448-0.469,0.96-0.747,1.451c-0.64,0.064-1.28,0.149-1.941,0.213
			c-2.304,0.256-4.523,0.512-6.891,0.768c-3.904,0.384-8.043,0.725-12.139,1.088c-2.411,0.213-4.715,0.448-7.189,0.64
			c-4.309,0.341-8.875,0.619-13.397,0.917c-2.475,0.171-4.864,0.341-7.403,0.491c-4.715,0.277-9.664,0.491-14.571,0.704
			c-0.363,0.021-0.704,0.043-1.045,0.043L316.949,183.353z M245.333,181.327c17.557,0,34.133,0.341,49.771,0.96l-17.067,62.571
			c-0.384,0-0.747,0.021-1.109,0.043c-2.24,0.064-4.395,0.149-6.677,0.192c-8.085,0.149-16.384,0.235-24.917,0.235
			c-8.64,0-17.067-0.085-25.237-0.235c-2.56-0.043-4.928-0.149-7.445-0.213l-17.067-62.592
			C211.221,181.668,227.797,181.327,245.333,181.327z M173.76,183.332l16.576,60.779c-23.936-1.045-45.483-2.731-64.576-4.843
			c-0.277-0.491-0.405-1.045-0.768-1.515l-36.245-45.291C111.68,188.623,140.032,185.316,173.76,183.332z M21.632,213.668
			c3.115-4.821,18.091-11.029,43.861-16.725c0.299,0.576,0.448,1.173,0.875,1.707l29.397,36.736
			C51.093,228.559,25.515,219.705,21.632,213.668z M298.667,435.94c-16.555,0.853-34.24,1.365-53.333,1.365
			c-19.093,0-36.757-0.512-53.333-1.365v-51.947c0-5.888,4.779-10.667,10.667-10.667H288c5.888,0,10.667,4.779,10.667,10.667V435.94
			z M448.064,404.815c-3.669,9.109-48.469,23.808-128.064,29.803v-50.624c0-17.643-14.357-32-32-32h-85.333
			c-17.621,0-32,14.357-32,32v50.603c-79.595-6.016-124.395-20.821-128.064-30.443L24.256,238.991
			c0.427,0.192,0.96,0.341,1.387,0.533c3.285,1.429,6.741,2.816,10.496,4.096c0.213,0.064,0.384,0.149,0.597,0.213
			c3.947,1.344,8.213,2.56,12.587,3.755c0.939,0.256,1.899,0.512,2.859,0.768c4.373,1.131,8.896,2.197,13.611,3.179
			c0.747,0.149,1.493,0.299,2.24,0.448c4.331,0.896,8.768,1.728,13.291,2.496c0.939,0.171,1.877,0.341,2.816,0.491
			c4.949,0.832,10.005,1.6,15.125,2.304c1.173,0.171,2.347,0.32,3.52,0.469c5.056,0.683,10.133,1.323,15.253,1.899
			c0.235,0.021,0.469,0.064,0.725,0.085c5.355,0.597,10.731,1.131,16.064,1.643c1.173,0.107,2.325,0.213,3.477,0.32
			c5.163,0.469,10.304,0.896,15.36,1.28c0.896,0.064,1.771,0.128,2.667,0.192c4.523,0.341,8.981,0.64,13.355,0.896
			c0.981,0.085,1.941,0.149,2.901,0.213c4.757,0.277,9.344,0.533,13.824,0.747c1.173,0.064,2.283,0.107,3.435,0.171
			c4.139,0.192,8.171,0.363,11.989,0.512c0.427,0.021,0.875,0.043,1.301,0.043c0.363,0.021,0.661,0.021,1.024,0.043
			c0.085,0,0.149,0.085,0.235,0.085c0.149,0,0.277-0.064,0.427-0.064c3.477,0.128,6.763,0.235,9.877,0.32
			c0.747,0.021,1.472,0.043,2.197,0.064c3.435,0.085,6.635,0.171,9.536,0.235c0.789,0.021,1.451,0.021,2.197,0.043
			c2.411,0.043,4.587,0.085,6.528,0.107c0.427,0,0.853,0.021,1.237,0.021c2.091,0.021,3.797,0.043,5.205,0.043
			c0.683,0,1.045,0,1.557,0c0.939,0,1.685,0,2.069,0h0.107c0.384,0,1.195,0,2.219,0c0.469,0,0.789,0,1.387,0
			c1.451,0,3.221-0.021,5.397-0.043c0.277,0,0.576,0,0.853-0.021c2.091-0.021,4.459-0.064,7.104-0.107
			c0.597-0.021,1.109-0.021,1.749-0.021c3.008-0.064,6.357-0.149,9.92-0.235c0.555-0.021,1.109-0.043,1.685-0.043
			c2.987-0.085,6.123-0.192,9.429-0.299c0.384,0.043,0.768,0.149,1.173,0.149c0.235,0,0.427-0.213,0.661-0.213
			c0.363-0.021,0.683-0.021,1.045-0.043c0.064,0,0.107,0,0.171,0c4.117-0.149,8.491-0.341,12.992-0.555
			c0.96-0.043,1.899-0.085,2.901-0.128c4.608-0.235,9.344-0.491,14.229-0.768c0.768-0.043,1.557-0.107,2.347-0.149
			c4.608-0.277,9.301-0.597,14.08-0.96c0.725-0.064,1.429-0.107,2.155-0.149c5.163-0.384,10.411-0.832,15.68-1.301
			c1.045-0.085,2.069-0.192,3.093-0.299c5.44-0.512,10.901-1.045,16.363-1.664c0.085,0,0.171-0.021,0.256-0.021
			c5.291-0.597,10.539-1.259,15.765-1.963c1.109-0.149,2.197-0.299,3.307-0.448c5.163-0.725,10.261-1.493,15.253-2.325
			c0.896-0.149,1.771-0.32,2.645-0.469c4.608-0.789,9.109-1.643,13.504-2.539c0.704-0.149,1.429-0.277,2.112-0.427
			c4.715-1.003,9.259-2.069,13.653-3.2c0.96-0.235,1.877-0.491,2.816-0.747c4.395-1.195,8.661-2.411,12.608-3.755
			c0.192-0.064,0.363-0.149,0.576-0.213c3.776-1.28,7.232-2.667,10.539-4.096c0.427-0.192,0.96-0.341,1.387-0.533L448.064,404.815z
			 M467.925,214.265c-0.363,0.363-0.683,0.704-1.152,1.067c-0.576,0.448-1.344,0.896-2.091,1.365
			c-0.597,0.363-1.152,0.725-1.856,1.109c-0.917,0.491-2.005,0.981-3.093,1.472c-0.811,0.363-1.557,0.725-2.475,1.109
			c-1.237,0.512-2.688,1.024-4.117,1.557c-1.024,0.363-1.963,0.747-3.072,1.109c-1.579,0.533-3.349,1.045-5.099,1.579
			c-1.237,0.363-2.389,0.747-3.712,1.109c-1.899,0.533-4.032,1.067-6.123,1.6c-1.408,0.363-2.731,0.725-4.224,1.067
			c-2.283,0.555-4.8,1.088-7.296,1.621c-1.536,0.341-3.008,0.683-4.608,1.003c-2.667,0.555-5.568,1.067-8.427,1.6
			c-1.685,0.32-3.264,0.619-5.013,0.939c-2.923,0.512-6.08,1.003-9.195,1.493c-0.448,0.064-0.875,0.128-1.301,0.213l29.291-36.608
			c0.427-0.533,0.576-1.152,0.875-1.728c24.981,5.525,39.936,11.541,43.669,16.299C468.629,213.583,468.288,213.924,467.925,214.265
			z M469.333,127.993V106.66l14.229,10.667L469.333,127.993z"/>
	</g>
</g>
<g>
</g>
<g>
</g>
<g>
</g>
<g>
</g>
<g>
</g>
<g>
</g>
<g>
</g>
<g>
</g>
<g>
</g>
<g>
</g>
<g>
</g>
<g>
</g>
<g>
</g>
<g>
</g>
<g>
</g>
</svg>
