<?xml version="1.0" encoding="iso-8859-1"?>
<!-- Generator: Adobe Illustrator 19.0.0, SVG Export Plug-In . SVG Version: 6.00 Build 0)  -->
<svg version="1.1" id="Layer_1" xmlns="http://www.w3.org/2000/svg" xmlns:xlink="http://www.w3.org/1999/xlink" x="0px" y="0px"
	 viewBox="0 0 512 512" style="enable-background:new 0 0 512 512;" xml:space="preserve">
<polygon style="fill:#0071CE;" points="149.043,111.487 68.229,80.934 68.229,142.039 "/>
<polygon style="opacity:0.2;enable-background:new    ;" points="68.229,80.934 68.229,142.039 91.601,133.203 91.601,89.77 "/>
<path style="fill:#333E48;" d="M68.229,189.35c-4.526,0-8.193-3.668-8.193-8.193V79.205c0-4.525,3.667-8.193,8.193-8.193
	s8.193,3.668,8.193,8.193v101.952C76.422,185.682,72.754,189.35,68.229,189.35z"/>
<polygon style="fill:#FFB819;" points="311.246,111.487 230.431,80.934 230.431,142.039 "/>
<polygon style="opacity:0.2;enable-background:new    ;" points="230.431,80.934 230.431,142.039 253.804,133.203 253.804,89.77 "/>
<path style="fill:#333E48;" d="M230.431,189.35c-4.526,0-8.193-3.668-8.193-8.193V79.205c0-4.525,3.667-8.193,8.193-8.193
	s8.193,3.668,8.193,8.193v101.952C238.623,185.682,234.956,189.35,230.431,189.35z"/>
<polygon style="fill:#7CDFA8;" points="473.448,111.487 392.633,80.934 392.633,142.039 "/>
<polygon style="opacity:0.2;enable-background:new    ;" points="392.633,80.934 392.633,142.039 416.006,133.203 416.006,89.77 "/>
<path style="fill:#333E48;" d="M392.633,189.35c-4.526,0-8.193-3.668-8.193-8.193V79.205c0-4.525,3.667-8.193,8.193-8.193
	s8.193,3.668,8.193,8.193v101.952C400.825,185.682,397.158,189.35,392.633,189.35z"/>
<polygon style="fill:#A4A9AD;" points="456.319,218.869 55.676,218.869 82.03,428.679 429.966,428.679 "/>
<polygon style="fill:#0071CE;" points="69.254,326.971 75.8,379.08 436.195,379.08 442.74,326.971 "/>
<polygon style="opacity:0.2;enable-background:new    ;" points="55.676,218.869 59.629,250.34 452.367,250.34 456.319,218.869 "/>
<path style="fill:#333E48;" d="M460.304,204.635v187.648l-90.653-191.158l-7.402,3.511l-7.402-3.511l-90.653,191.158V204.635
	h-16.385v187.648l-90.653-191.158l-7.402,3.511l-7.402-3.511L51.696,392.283V204.635H35.311v224.043
	c0,3.831,2.655,7.151,6.394,7.993c0.602,0.135,1.206,0.201,1.801,0.201c3.111,0,6.023-1.778,7.4-4.683l90.653-191.158v187.648
	h16.385V241.031l90.653,191.158c1.356,2.86,4.237,4.682,7.402,4.682s6.046-1.822,7.402-4.682l90.653-191.158v187.648h16.385V241.031
	l90.653,191.158c1.377,2.905,4.29,4.683,7.4,4.683c0.596,0,1.201-0.066,1.801-0.201c3.738-0.842,6.394-4.162,6.394-7.993V204.635
	H460.304z"/>
<path style="opacity:0.2;enable-background:new    ;" d="M247.807,244.803h16.385v-25.935h-16.385V244.803z M35.311,244.803h16.385
	v-25.935H35.311V244.803z M133.935,218.869l-12.3,25.935h18.135l1.789-3.773v3.773h16.385v-3.773l1.789,3.773h18.134l-12.3-25.935
	H133.935z M460.304,218.869v25.935h16.385v-25.935H460.304z M346.431,218.869l-12.298,25.935h18.134l1.789-3.773v3.773h16.385
	v-3.773l1.789,3.773h18.134l-12.298-25.935H346.431z"/>
<path style="fill:#00B3E3;" d="M468.496,226.609H43.504c-15.082,0-27.309-12.227-27.309-27.309s12.227-27.309,27.309-27.309h424.992
	c15.082,0,27.309,12.227,27.309,27.309C495.805,214.382,483.577,226.609,468.496,226.609z"/>
<path style="fill:#218649;" d="M512,436.574c0,2.427-1.984,4.413-4.412,4.413H4.412c-2.427,0-4.412-1.986-4.412-4.413v-15.791
	c0-2.427,1.985-4.413,4.412-4.413h503.176c2.428,0,4.412,1.986,4.412,4.413V436.574z"/>
<path style="fill:#00AD68;" d="M116.59,416.369c0-26.143-21.193-47.336-47.336-47.336s-47.336,21.193-47.336,47.336H116.59z"/>
<g>
</g>
<g>
</g>
<g>
</g>
<g>
</g>
<g>
</g>
<g>
</g>
<g>
</g>
<g>
</g>
<g>
</g>
<g>
</g>
<g>
</g>
<g>
</g>
<g>
</g>
<g>
</g>
<g>
</g>
</svg>
