<?xml version="1.0" encoding="iso-8859-1"?>
<!-- Generator: Adobe Illustrator 19.0.0, SVG Export Plug-In . SVG Version: 6.00 Build 0)  -->
<svg version="1.1" id="Layer_1" xmlns="http://www.w3.org/2000/svg" xmlns:xlink="http://www.w3.org/1999/xlink" x="0px" y="0px"
	 viewBox="0 0 512 512" style="enable-background:new 0 0 512 512;" xml:space="preserve">
<circle style="fill:#FD8469;" cx="256" cy="256" r="256"/>
<path style="fill:#FC6F58;" d="M269.715,511.633c131.515-6.944,236.697-113.145,242.052-245.077L319.131,73.921l-4.344,66.003
	h-88.093L123.925,265.947l83.887,83.887l-14.058,85.84L269.715,511.633z"/>
<g>
	<path style="fill:#324A5E;" d="M319.131,73.921l-35.323,18.01l17.898,35.104c-7.69-2.744-15.629-4.799-23.723-6.087
		c-40.277-6.408-82.091,6.272-111.875,33.906c-30.463,28.269-46.232,69.799-42.181,111.092l39.462-3.872
		c-2.85-29.043,8.249-58.259,29.689-78.155c20.926-19.416,50.329-28.322,78.677-23.812c6.268,0.996,12.407,2.646,18.327,4.887
		l-35.943,18.323l18.01,35.325l95.854-48.868L319.131,73.921z"/>
	<path style="fill:#324A5E;" d="M349.949,256.133c0.145,21.632-7.287,42.824-20.925,59.673
		c-26.109,32.254-69.327,42.655-106.189,28.777l35.914-18.31l-18.01-35.323l-95.854,48.869l48.869,95.853l35.323-18.01
		l-17.853-35.016c14.198,5.06,29.212,7.671,44.516,7.671c4.725,0,9.485-0.25,14.25-0.752c35.492-3.739,67.401-21.075,89.852-48.812
		c19.394-23.959,29.961-54.107,29.756-84.883L349.949,256.133z"/>
</g>
<g>
	<path style="fill:#2B3B4E;" d="M166.105,154.853c-30.463,28.269-46.232,69.799-42.181,111.092l39.462-3.872
		c-2.813-28.667,7.985-57.487,28.882-77.362l-25.466-30.487C166.572,154.436,166.336,154.641,166.105,154.853z"/>
	<path style="fill:#2B3B4E;" d="M222.835,344.585l35.914-18.31l-18.01-35.323l-95.854,48.869l48.869,95.853l35.323-18.01
		l-17.853-35.016c14.198,5.06,29.212,7.671,44.516,7.671c4.725,0,9.485-0.25,14.25-0.752c25.836-2.722,49.754-12.678,69.525-28.579
		l-25.438-30.455C288.168,350.913,253.331,356.064,222.835,344.585z"/>
</g>
<g>
</g>
<g>
</g>
<g>
</g>
<g>
</g>
<g>
</g>
<g>
</g>
<g>
</g>
<g>
</g>
<g>
</g>
<g>
</g>
<g>
</g>
<g>
</g>
<g>
</g>
<g>
</g>
<g>
</g>
</svg>
